<svg version="1.2" xmlns="http://www.w3.org/2000/svg" viewBox="0 0 60 49" width="60" height="49">
	<title>shield-icon</title>
	<style>
		.s0 { fill: #aeddd6;stroke: #000000;stroke-linejoin: round;stroke-width: 2.5 } 
	</style>
	<path class="s0" d="m48.3 25c-0.1 3.7-1 7.3-2.8 10.4l-0.4 0.6c-2.5 3.9-7.1 9.1-14.7 11.5q-0.4 0.1-0.8 0c-7.1-2.2-11.6-6.9-14.2-10.8l-0.5-0.7c-2.1-3.2-3.1-7-3.1-11v-14.3c0-0.6 0.4-1.2 1-1.3 8.2-1.2 13.6-4.7 16.4-7l0.1-0.1c0.4-0.3 1.1-0.3 1.5 0.1 2.8 2.3 8.2 5.8 16.4 7 0.6 0.1 1.1 0.7 1.1 1.3z"/>
</svg>