<svg width="40" height="49" viewBox="0 0 40 49" fill="none" xmlns="http://www.w3.org/2000/svg">
<path d="M38.25 25.0479C38.2499 28.7462 37.3082 32.3047 35.5068 35.3789L35.1357 35.9873C32.6147 39.9466 28.0165 45.1293 20.374 47.5283C20.1303 47.6048 19.8687 47.6049 19.625 47.5283C12.4602 45.2779 7.9719 40.5835 5.36133 36.7432L4.86426 35.9873C2.82054 32.7786 1.75005 28.9925 1.75 25.0479L1.75 10.6709C1.75004 10.0534 2.20108 9.52867 2.81152 9.43555C11.0349 8.18417 16.418 4.69089 19.2002 2.375L19.2891 2.30762C19.7464 1.99096 20.3653 2.0134 20.7998 2.375C23.5831 4.69105 28.9657 8.18419 37.1885 9.43555C37.7989 9.52867 38.25 10.0534 38.25 10.6709V25.0479Z" fill="#AEDDD6" stroke="black" stroke-width="2.5" stroke-linejoin="round"/>
</svg>
